<?xml version="1.0" encoding="UTF-8" standalone="no"?>
<!-- Created with Inkscape (http://www.inkscape.org/) -->

<svg
   width="210mm"
   height="297mm"
   viewBox="0 0 210 297"
   version="1.1"
   id="svg5"
   sodipodi:docname="logo.svg"
   inkscape:version="1.2.2 (b0a8486541, 2022-12-01)"
   xmlns:inkscape="http://www.inkscape.org/namespaces/inkscape"
   xmlns:sodipodi="http://sodipodi.sourceforge.net/DTD/sodipodi-0.dtd"
   xmlns="http://www.w3.org/2000/svg"
   xmlns:svg="http://www.w3.org/2000/svg">
  <sodipodi:namedview
     id="namedview7"
     pagecolor="#ffffff"
     bordercolor="#000000"
     borderopacity="0.25"
     inkscape:showpageshadow="2"
     inkscape:pageopacity="0.0"
     inkscape:pagecheckerboard="0"
     inkscape:deskcolor="#d1d1d1"
     inkscape:document-units="mm"
     showgrid="false"
     inkscape:zoom="0.54677766"
     inkscape:cx="89.615951"
     inkscape:cy="561.47137"
     inkscape:window-width="1920"
     inkscape:window-height="1022"
     inkscape:window-x="0"
     inkscape:window-y="30"
     inkscape:window-maximized="1"
     inkscape:current-layer="layer1" />
  <defs
     id="defs2">
    <rect
       x="359.34677"
       y="607.05671"
       width="403.0588"
       height="105.20879"
       id="rect4910" />
  </defs>
  <g
     inkscape:label="Kiht 1"
     inkscape:groupmode="layer"
     id="layer1">
    <path
       style="fill:#000000;fill-opacity:1;stroke:#2b1100;stroke-width:0.264583;stroke-opacity:0"
       id="path4906"
       d="m 23.745828,158.13538 c 3.760631,0.62686 7.517291,1.40509 11.14522,2.59543 0.850633,0.27909 1.706145,0.55434 2.523022,0.92064 0.828707,0.37161 1.60083,0.85835 2.401244,1.28752 -0.2711,-0.0243 -0.971613,-0.29428 -0.8133,-0.0729 0.574117,0.80291 1.487665,1.29971 2.187943,1.99533 2.345947,2.33032 4.273415,4.98948 6.080323,7.74365 0.954935,1.56579 1.964669,3.1481 2.307358,4.97268 0.20199,1.51443 0.03685,3.03974 -0.07691,4.55378 -0.104899,1.32763 -0.154231,2.65864 -0.233259,3.98778 -0.136332,1.92731 -0.336386,1.43944 3.548102,2.50776 0.215222,0.0592 0.154627,-0.41882 0.235344,-0.62693 0.112911,-0.29111 0.230346,-0.58044 0.345517,-0.87067 1.144561,-2.9233 2.466337,-5.77237 3.785491,-8.61968 1.284973,-2.7244 2.663158,-5.40294 4.034076,-8.08461 0.925496,-2.03434 2.349397,-3.72385 3.854209,-5.34784 1.507852,-1.58669 3.081629,-3.09566 4.977106,-4.20297 1.340575,-0.76793 2.783269,-1.28787 4.266848,-1.69421 0.855684,-0.24149 1.738508,-0.27872 2.620973,-0.29694 0.713285,-0.0105 1.426628,-7.9e-4 2.139876,0.007 0.422474,0.004 0.844981,0.005 1.267473,0.006 0.500954,5.3e-4 1.001911,-0.002 1.502863,-0.004 0.582977,-2.6e-4 1.165955,0.001 1.74893,0.003 0.378598,0.002 0.7572,0.001 1.135801,0.001 0.485859,0.0848 0.968438,0.21087 1.459293,0.28862 0.395523,0.0601 0.795732,0.0554 1.19184,0.10822 0.311314,0.0314 0.623612,0.0501 0.936138,0.0635 0,0 -3.205864,-2.3564 -3.205864,-2.3564 v 0 c -0.309425,-0.021 -0.61867,-0.0448 -0.926748,-0.0812 -0.392097,-0.0309 -0.785995,-0.0499 -1.172813,-0.12699 -0.498454,-0.0939 -0.994333,-0.24293 -1.504781,-0.23735 -0.377396,2.6e-4 -0.754795,-2.7e-4 -1.132189,0.001 -0.580252,0.002 -1.160507,0.003 -1.740763,0.003 -0.504481,-0.002 -1.008962,-0.004 -1.513445,-0.005 -0.420693,-2.7e-4 -0.841375,-0.002 -1.262063,-0.004 -0.711655,-0.002 -1.423408,-0.002 -2.134928,0.0141 -0.902208,0.035 -1.799103,0.11153 -2.665952,0.38544 -1.494367,0.4445 -2.944373,1.00737 -4.294688,1.79779 -1.90441,1.15426 -3.482705,2.70246 -5.009914,4.31429 -1.530197,1.65266 -3.007267,3.34771 -3.926718,5.43214 -1.337162,2.70426 -2.683801,5.4041 -3.982662,8.12702 -1.333714,2.84441 -2.653652,5.6956 -3.863726,8.59545 -0.123164,0.28688 -0.245737,0.57401 -0.369491,0.86064 -0.08355,0.19352 -0.413104,0.44336 -0.252423,0.57979 3.885665,3.29909 3.300378,3.14852 3.428749,1.28013 0.06914,-1.33301 0.07562,-2.66954 0.19241,-4.00026 0.115959,-1.5391 0.311753,-3.0835 0.140081,-4.62678 -0.273923,-1.91899 -1.339144,-3.54881 -2.3481,-5.17098 -1.837455,-2.77969 -3.780214,-5.48262 -6.127909,-7.86358 -0.696391,-0.70626 -1.37518,-1.44401 -2.174999,-2.03057 -1.793074,-1.31497 -3.719629,-2.43748 -5.579446,-3.65622 -0.812396,-0.41657 -1.598941,-0.88797 -2.437189,-1.24972 -0.818165,-0.35307 -1.671801,-0.61934 -2.520831,-0.8899 -3.676081,-1.17146 -7.471734,-1.93576 -11.262283,-2.62385 0,0 3.077166,2.30997 3.077166,2.30997 z" />
    <text
       xml:space="preserve"
       transform="scale(0.26458333)"
       id="text4908"
       style="white-space:pre;shape-inside:url(#rect4910);fill:#000000;fill-opacity:1;stroke:#2b1100;stroke-opacity:0;font-size:60.00000076px" />
    <text
       xml:space="preserve"
       style="font-size:29.1273px;fill:#000000;fill-opacity:1;stroke:#2b1100;stroke-width:0.303409;stroke-opacity:0"
       x="69.38755"
       y="165.17032"
       id="text4916"
       transform="scale(0.87992072,1.136466)"><tspan
         sodipodi:role="line"
         id="tspan4914"
         style="font-size:29.1273px;stroke-width:0.303409"
         x="69.38755"
         y="165.17032">aleNimi4</tspan></text>
  </g>
</svg>
